# Wavefront OBJ file automatically generated by Tiled2Unity

# Vertices (Count = 578)
v 0 -64 0
v -64 -64 0
v -64 0 0
v 0 0 0
v 0 -128 0
v -64 -128 0
v -8896 -128 0
v -8960 -128 0
v -8960 -64 0
v -8896 -64 0
v -9024 -128 0
v -9024 -64 0
v -9088 -128 0
v -9088 -64 0
v -9152 -128 0
v -9152 -64 0
v -9408 -128 0
v -9472 -128 0
v -9472 -64 0
v -9408 -64 0
v -9536 -128 0
v -9536 -64 0
v -9600 -128 0
v -9600 -64 0
v -9664 -128 0
v -9664 -64 0
v 0 -192 0
v -64 -192 0
v -5824 -192 0
v -5888 -192 0
v -5888 -128 0
v -5824 -128 0
v -5952 -192 0
v -5952 -128 0
v -6016 -192 0
v -6016 -128 0
v -6080 -192 0
v -6080 -128 0
v -8448 -192 0
v -8512 -192 0
v -8512 -128 0
v -8448 -128 0
v -8576 -192 0
v -8576 -128 0
v -8640 -192 0
v -8640 -128 0
v -8704 -192 0
v -8704 -128 0
v -10304 -192 0
v -10368 -192 0
v -10368 -128 0
v -10304 -128 0
v -10432 -192 0
v -10432 -128 0
v -11264 -192 0
v -11328 -192 0
v -11328 -128 0
v -11264 -128 0
v -11392 -192 0
v -11392 -128 0
v 0 -256 0
v -64 -256 0
v -1088 -256 0
v -1152 -256 0
v -1152 -192 0
v -1088 -192 0
v -1216 -256 0
v -1216 -192 0
v -1280 -256 0
v -1280 -192 0
v -2944 -256 0
v -3008 -256 0
v -3008 -192 0
v -2944 -192 0
v -3072 -256 0
v -3072 -192 0
v -3264 -256 0
v -3328 -256 0
v -3328 -192 0
v -3264 -192 0
v -3392 -256 0
v -3392 -192 0
v -5824 -256 0
v -5888 -256 0
v -5952 -256 0
v -6016 -256 0
v -6080 -256 0
v -10304 -256 0
v -10368 -256 0
v -10432 -256 0
v -11264 -256 0
v -11328 -256 0
v -11392 -256 0
v 0 -320 0
v -64 -320 0
v -1088 -320 0
v -1152 -320 0
v -1216 -320 0
v -1280 -320 0
v -2944 -320 0
v -3008 -320 0
v -3072 -320 0
v -3264 -320 0
v -3328 -320 0
v -3392 -320 0
v -4992 -320 0
v -5056 -320 0
v -5056 -256 0
v -4992 -256 0
v -5120 -320 0
v -5120 -256 0
v -5440 -320 0
v -5504 -320 0
v -5504 -256 0
v -5440 -256 0
v -5568 -320 0
v -5568 -256 0
v -7552 -320 0
v -7616 -320 0
v -7616 -256 0
v -7552 -256 0
v -7680 -320 0
v -7680 -256 0
v -7744 -320 0
v -7744 -256 0
v -7808 -320 0
v -7808 -256 0
v -8000 -320 0
v -8064 -320 0
v -8064 -256 0
v -8000 -256 0
v -8128 -320 0
v -8128 -256 0
v -8192 -320 0
v -8192 -256 0
v -8256 -320 0
v -8256 -256 0
v -10304 -320 0
v -10368 -320 0
v -10432 -320 0
v -11264 -320 0
v -11328 -320 0
v -11392 -320 0
v 0 -384 0
v -64 -384 0
v -704 -384 0
v -768 -384 0
v -768 -320 0
v -704 -320 0
v -832 -384 0
v -832 -320 0
v -896 -384 0
v -896 -320 0
v -1088 -384 0
v -1152 -384 0
v -1216 -384 0
v -1280 -384 0
v -2944 -384 0
v -3008 -384 0
v -3072 -384 0
v -3264 -384 0
v -3328 -384 0
v -3392 -384 0
v -4032 -384 0
v -4096 -384 0
v -4096 -320 0
v -4032 -320 0
v -4160 -384 0
v -4160 -320 0
v -4224 -384 0
v -4224 -320 0
v -4288 -384 0
v -4288 -320 0
v -4992 -384 0
v -5056 -384 0
v -5120 -384 0
v -5440 -384 0
v -5504 -384 0
v -5568 -384 0
v -10240 -384 0
v -10304 -384 0
v -10240 -320 0
v -10368 -384 0
v -10432 -384 0
v -11264 -384 0
v -11328 -384 0
v -11392 -384 0
v 0 -448 0
v -64 -448 0
v -704 -448 0
v -768 -448 0
v -832 -448 0
v -896 -448 0
v -1088 -448 0
v -1152 -448 0
v -1216 -448 0
v -1280 -448 0
v -2624 -448 0
v -2688 -448 0
v -2688 -384 0
v -2624 -384 0
v -2752 -448 0
v -2752 -384 0
v -2816 -448 0
v -2816 -384 0
v -2944 -448 0
v -3008 -448 0
v -3072 -448 0
v -3200 -448 0
v -3264 -448 0
v -3200 -384 0
v -3328 -448 0
v -3392 -448 0
v -4032 -448 0
v -4096 -448 0
v -4160 -448 0
v -4224 -448 0
v -4288 -448 0
v -4736 -448 0
v -4800 -448 0
v -4800 -384 0
v -4736 -384 0
v -4864 -448 0
v -4864 -384 0
v -4992 -448 0
v -5056 -448 0
v -5120 -448 0
v -5440 -448 0
v -5504 -448 0
v -5568 -448 0
v -6464 -448 0
v -6528 -448 0
v -6528 -384 0
v -6464 -384 0
v -6592 -448 0
v -6592 -384 0
v -10240 -448 0
v -10304 -448 0
v -10368 -448 0
v -10432 -448 0
v -11264 -448 0
v -11328 -448 0
v -11392 -448 0
v 0 -512 0
v -64 -512 0
v -128 -512 0
v -128 -448 0
v -192 -512 0
v -192 -448 0
v -256 -512 0
v -256 -448 0
v -320 -512 0
v -320 -448 0
v -384 -512 0
v -384 -448 0
v -448 -512 0
v -448 -448 0
v -512 -512 0
v -512 -448 0
v -576 -512 0
v -576 -448 0
v -640 -512 0
v -640 -448 0
v -704 -512 0
v -768 -512 0
v -832 -512 0
v -896 -512 0
v -960 -512 0
v -960 -448 0
v -1024 -512 0
v -1024 -448 0
v -1088 -512 0
v -1152 -512 0
v -1216 -512 0
v -1280 -512 0
v -1344 -512 0
v -1344 -448 0
v -1408 -512 0
v -1408 -448 0
v -1472 -512 0
v -1472 -448 0
v -1536 -512 0
v -1536 -448 0
v -1600 -512 0
v -1600 -448 0
v -1664 -512 0
v -1664 -448 0
v -1728 -512 0
v -1728 -448 0
v -1792 -512 0
v -1792 -448 0
v -1856 -512 0
v -1856 -448 0
v -1920 -512 0
v -1920 -448 0
v -1984 -512 0
v -1984 -448 0
v -2048 -512 0
v -2048 -448 0
v -2112 -512 0
v -2112 -448 0
v -2176 -512 0
v -2176 -448 0
v -2240 -512 0
v -2240 -448 0
v -2304 -512 0
v -2304 -448 0
v -2368 -512 0
v -2368 -448 0
v -2432 -512 0
v -2432 -448 0
v -2496 -512 0
v -2496 -448 0
v -2560 -512 0
v -2560 -448 0
v -2624 -512 0
v -2688 -512 0
v -2752 -512 0
v -2816 -512 0
v -2880 -512 0
v -2880 -448 0
v -2944 -512 0
v -3008 -512 0
v -3072 -512 0
v -3136 -512 0
v -3136 -448 0
v -3200 -512 0
v -3264 -512 0
v -3328 -512 0
v -3392 -512 0
v -3456 -512 0
v -3456 -448 0
v -3520 -512 0
v -3520 -448 0
v -3584 -512 0
v -3584 -448 0
v -3648 -512 0
v -3648 -448 0
v -3712 -512 0
v -3712 -448 0
v -3776 -512 0
v -3776 -448 0
v -3840 -512 0
v -3840 -448 0
v -3904 -512 0
v -3904 -448 0
v -3968 -512 0
v -3968 -448 0
v -4032 -512 0
v -4096 -512 0
v -4160 -512 0
v -4224 -512 0
v -4288 -512 0
v -4352 -512 0
v -4352 -448 0
v -4416 -512 0
v -4416 -448 0
v -4480 -512 0
v -4480 -448 0
v -4544 -512 0
v -4544 -448 0
v -4608 -512 0
v -4608 -448 0
v -4672 -512 0
v -4672 -448 0
v -4736 -512 0
v -4800 -512 0
v -4864 -512 0
v -4928 -512 0
v -4928 -448 0
v -4992 -512 0
v -5056 -512 0
v -5120 -512 0
v -5440 -512 0
v -5504 -512 0
v -5568 -512 0
v -5632 -512 0
v -5632 -448 0
v -5696 -512 0
v -5696 -448 0
v -5760 -512 0
v -5760 -448 0
v -5824 -512 0
v -5824 -448 0
v -5888 -512 0
v -5888 -448 0
v -5952 -512 0
v -5952 -448 0
v -6016 -512 0
v -6016 -448 0
v -6080 -512 0
v -6080 -448 0
v -6144 -512 0
v -6144 -448 0
v -6208 -512 0
v -6208 -448 0
v -6272 -512 0
v -6272 -448 0
v -6336 -512 0
v -6336 -448 0
v -6400 -512 0
v -6400 -448 0
v -6464 -512 0
v -6528 -512 0
v -6592 -512 0
v -6656 -512 0
v -6656 -448 0
v -6720 -512 0
v -6720 -448 0
v -6784 -512 0
v -6784 -448 0
v -6848 -512 0
v -6848 -448 0
v -6912 -512 0
v -6912 -448 0
v -6976 -512 0
v -6976 -448 0
v -7040 -512 0
v -7040 -448 0
v -7360 -512 0
v -7424 -512 0
v -7424 -448 0
v -7360 -448 0
v -7488 -512 0
v -7488 -448 0
v -7552 -512 0
v -7552 -448 0
v -7616 -512 0
v -7616 -448 0
v -7680 -512 0
v -7680 -448 0
v -7744 -512 0
v -7744 -448 0
v -7808 -512 0
v -7808 -448 0
v -7872 -512 0
v -7872 -448 0
v -8384 -512 0
v -8448 -512 0
v -8448 -448 0
v -8384 -448 0
v -8512 -512 0
v -8512 -448 0
v -8576 -512 0
v -8576 -448 0
v -8640 -512 0
v -8640 -448 0
v -8704 -512 0
v -8704 -448 0
v -8768 -512 0
v -8768 -448 0
v -8832 -512 0
v -8832 -448 0
v -9920 -512 0
v -9984 -512 0
v -9984 -448 0
v -9920 -448 0
v -10048 -512 0
v -10048 -448 0
v -10112 -512 0
v -10112 -448 0
v -10176 -512 0
v -10176 -448 0
v -10240 -512 0
v -10304 -512 0
v -10368 -512 0
v -10432 -512 0
v -10496 -512 0
v -10496 -448 0
v -10560 -512 0
v -10560 -448 0
v -10624 -512 0
v -10624 -448 0
v -10688 -512 0
v -10688 -448 0
v -10752 -512 0
v -10752 -448 0
v -10816 -512 0
v -10816 -448 0
v -10880 -512 0
v -10880 -448 0
v -10944 -512 0
v -10944 -448 0
v -11008 -512 0
v -11008 -448 0
v -11072 -512 0
v -11072 -448 0
v -11136 -512 0
v -11136 -448 0
v -11200 -512 0
v -11200 -448 0
v -11264 -512 0
v -11328 -512 0
v -11392 -512 0
v -4032 -128 0
v -4114 -128 0
v -4114 -46 0
v -4032 -46 0
v -4096 -128 0
v -4178 -128 0
v -4178 -46 0
v -4096 -46 0
v -4160 -192 0
v -4242 -192 0
v -4242 -110 0
v -4160 -110 0
v -4224 -192 0
v -4306 -192 0
v -4306 -110 0
v -4224 -110 0
v -7872 -192 0
v -7954 -192 0
v -7954 -110 0
v -7872 -110 0
v -7872 -256 0
v -7954 -256 0
v -7954 -174 0
v -7872 -174 0
v -6720 -320 0
v -6802 -320 0
v -6802 -238 0
v -6720 -238 0
v -7872 -320 0
v -7954 -320 0
v -7954 -238 0
v -7872 -238 0
v -6272 -384 0
v -6354 -384 0
v -6354 -302 0
v -6272 -302 0
v -6720 -384 0
v -6802 -384 0
v -6802 -302 0
v -6720 -302 0
v -7872 -384 0
v -7954 -384 0
v -7954 -302 0
v -7872 -302 0
v -3730 -448 0
v -3730 -366 0
v -3648 -366 0
v -5650 -448 0
v -5650 -366 0
v -5568 -366 0
v -6354 -448 0
v -6354 -366 0
v -6272 -366 0
v -6802 -448 0
v -6802 -366 0
v -6720 -366 0
v -7954 -448 0
v -7954 -366 0
v -7872 -366 0
v -11218 -448 0
v -11218 -366 0
v -11136 -366 0
v -5202 -512 0
v -5202 -430 0
v -5120 -430 0
v -5184 -512 0
v -5266 -512 0
v -5266 -430 0
v -5184 -430 0
v -5248 -512 0
v -5330 -512 0
v -5330 -430 0
v -5248 -430 0
v -5312 -512 0
v -5394 -512 0
v -5394 -430 0
v -5312 -430 0
v -5376 -512 0
v -5458 -512 0
v -5458 -430 0
v -5376 -430 0
v -7954 -512 0
v -7954 -430 0
v -7872 -430 0

# Texture Coorindates (Count = 4)
vt 0.0001220703 0.0001220703
vt 0.9998779 0.0001220703
vt 0.9998779 0.9998779
vt 0.0001220703 0.9998779

# Normal
vn 0 0 -1

# Groups (Count = 3)
g mesh_[00]_[01]
f  1/1/1  2/2/1  3/3/1  4/4/1 
f  5/1/1  6/2/1  2/3/1  1/4/1 
f  27/1/1  28/2/1  6/3/1  5/4/1 
f  61/1/1  62/2/1  28/3/1  27/4/1 
f  83/1/1  84/2/1  30/3/1  29/4/1 
f  84/1/1  85/2/1  33/3/1  30/4/1 
f  85/1/1  86/2/1  35/3/1  33/4/1 
f  86/1/1  87/2/1  37/3/1  35/4/1 
f  88/1/1  89/2/1  50/3/1  49/4/1 
f  89/1/1  90/2/1  53/3/1  50/4/1 
f  91/1/1  92/2/1  56/3/1  55/4/1 
f  92/1/1  93/2/1  59/3/1  56/4/1 
f  94/1/1  95/2/1  62/3/1  61/4/1 
f  96/1/1  97/2/1  64/3/1  63/4/1 
f  97/1/1  98/2/1  67/3/1  64/4/1 
f  98/1/1  99/2/1  69/3/1  67/4/1 
f  100/1/1  101/2/1  72/3/1  71/4/1 
f  101/1/1  102/2/1  75/3/1  72/4/1 
f  103/1/1  104/2/1  78/3/1  77/4/1 
f  104/1/1  105/2/1  81/3/1  78/4/1 
f  138/1/1  139/2/1  89/3/1  88/4/1 
f  139/1/1  140/2/1  90/3/1  89/4/1 
f  141/1/1  142/2/1  92/3/1  91/4/1 
f  142/1/1  143/2/1  93/3/1  92/4/1 
f  144/1/1  145/2/1  95/3/1  94/4/1 
f  154/1/1  155/2/1  97/3/1  96/4/1 
f  155/1/1  156/2/1  98/3/1  97/4/1 
f  156/1/1  157/2/1  99/3/1  98/4/1 
f  158/1/1  159/2/1  101/3/1  100/4/1 
f  159/1/1  160/2/1  102/3/1  101/4/1 
f  161/1/1  162/2/1  104/3/1  103/4/1 
f  162/1/1  163/2/1  105/3/1  104/4/1 
f  174/1/1  175/2/1  107/3/1  106/4/1 
f  175/1/1  176/2/1  110/3/1  107/4/1 
f  177/1/1  178/2/1  113/3/1  112/4/1 
f  178/1/1  179/2/1  116/3/1  113/4/1 
f  181/1/1  183/2/1  139/3/1  138/4/1 
f  183/1/1  184/2/1  140/3/1  139/4/1 
f  185/1/1  186/2/1  142/3/1  141/4/1 
f  186/1/1  187/2/1  143/3/1  142/4/1 
f  188/1/1  189/2/1  145/3/1  144/4/1 
f  190/1/1  191/2/1  147/3/1  146/4/1 
f  191/1/1  192/2/1  150/3/1  147/4/1 
f  192/1/1  193/2/1  152/3/1  150/4/1 
f  194/1/1  195/2/1  155/3/1  154/4/1 
f  195/1/1  196/2/1  156/3/1  155/4/1 
f  196/1/1  197/2/1  157/3/1  156/4/1 
f  206/1/1  207/2/1  159/3/1  158/4/1 
f  207/1/1  208/2/1  160/3/1  159/4/1 
f  210/1/1  212/2/1  162/3/1  161/4/1 
f  212/1/1  213/2/1  163/3/1  162/4/1 
f  214/1/1  215/2/1  165/3/1  164/4/1 
f  215/1/1  216/2/1  168/3/1  165/4/1 
f  216/1/1  217/2/1  170/3/1  168/4/1 
f  217/1/1  218/2/1  172/3/1  170/4/1 
f  225/1/1  226/2/1  175/3/1  174/4/1 
f  226/1/1  227/2/1  176/3/1  175/4/1 
f  228/1/1  229/2/1  178/3/1  177/4/1 
f  229/1/1  230/2/1  179/3/1  178/4/1 
f  237/1/1  238/2/1  181/3/1  180/4/1 
f  238/1/1  239/2/1  183/3/1  181/4/1 
f  239/1/1  240/2/1  184/3/1  183/4/1 
f  241/1/1  242/2/1  186/3/1  185/4/1 
f  242/1/1  243/2/1  187/3/1  186/4/1 
f  244/1/1  245/2/1  189/3/1  188/4/1 
f  264/1/1  265/2/1  191/3/1  190/4/1 
f  265/1/1  266/2/1  192/3/1  191/4/1 
f  266/1/1  267/2/1  193/3/1  192/4/1 
f  272/1/1  273/2/1  195/3/1  194/4/1 
f  273/1/1  274/2/1  196/3/1  195/4/1 
f  274/1/1  275/2/1  197/3/1  196/4/1 
f  316/1/1  317/2/1  199/3/1  198/4/1 
f  317/1/1  318/2/1  202/3/1  199/4/1 
f  318/1/1  319/2/1  204/3/1  202/4/1 
f  349/1/1  350/2/1  215/3/1  214/4/1 
f  350/1/1  351/2/1  216/3/1  215/4/1 
f  351/1/1  352/2/1  217/3/1  216/4/1 
f  352/1/1  353/2/1  218/3/1  217/4/1 
f  366/1/1  367/2/1  220/3/1  219/4/1 
f  367/1/1  368/2/1  223/3/1  220/4/1 
f  371/1/1  372/2/1  226/3/1  225/4/1 
f  372/1/1  373/2/1  227/3/1  226/4/1 
f  374/1/1  375/2/1  229/3/1  228/4/1 
f  375/1/1  376/2/1  230/3/1  229/4/1 
f  464/1/1  465/2/1  238/3/1  237/4/1 
f  465/1/1  466/2/1  239/3/1  238/4/1 
f  466/1/1  467/2/1  240/3/1  239/4/1 
f  492/1/1  493/2/1  242/3/1  241/4/1 
f  493/1/1  494/2/1  243/3/1  242/4/1 
g mesh_[00]_[00]
f  7/1/1  8/2/1  9/3/1  10/4/1 
f  8/1/1  11/2/1  12/3/1  9/4/1 
f  11/1/1  13/2/1  14/3/1  12/4/1 
f  13/1/1  15/2/1  16/3/1  14/4/1 
f  17/1/1  18/2/1  19/3/1  20/4/1 
f  18/1/1  21/2/1  22/3/1  19/4/1 
f  21/1/1  23/2/1  24/3/1  22/4/1 
f  23/1/1  25/2/1  26/3/1  24/4/1 
f  29/1/1  30/2/1  31/3/1  32/4/1 
f  30/1/1  33/2/1  34/3/1  31/4/1 
f  33/1/1  35/2/1  36/3/1  34/4/1 
f  35/1/1  37/2/1  38/3/1  36/4/1 
f  39/1/1  40/2/1  41/3/1  42/4/1 
f  40/1/1  43/2/1  44/3/1  41/4/1 
f  43/1/1  45/2/1  46/3/1  44/4/1 
f  45/1/1  47/2/1  48/3/1  46/4/1 
f  49/1/1  50/2/1  51/3/1  52/4/1 
f  50/1/1  53/2/1  54/3/1  51/4/1 
f  55/1/1  56/2/1  57/3/1  58/4/1 
f  56/1/1  59/2/1  60/3/1  57/4/1 
f  63/1/1  64/2/1  65/3/1  66/4/1 
f  64/1/1  67/2/1  68/3/1  65/4/1 
f  67/1/1  69/2/1  70/3/1  68/4/1 
f  71/1/1  72/2/1  73/3/1  74/4/1 
f  72/1/1  75/2/1  76/3/1  73/4/1 
f  77/1/1  78/2/1  79/3/1  80/4/1 
f  78/1/1  81/2/1  82/3/1  79/4/1 
f  106/1/1  107/2/1  108/3/1  109/4/1 
f  107/1/1  110/2/1  111/3/1  108/4/1 
f  112/1/1  113/2/1  114/3/1  115/4/1 
f  113/1/1  116/2/1  117/3/1  114/4/1 
f  118/1/1  119/2/1  120/3/1  121/4/1 
f  119/1/1  122/2/1  123/3/1  120/4/1 
f  122/1/1  124/2/1  125/3/1  123/4/1 
f  124/1/1  126/2/1  127/3/1  125/4/1 
f  128/1/1  129/2/1  130/3/1  131/4/1 
f  129/1/1  132/2/1  133/3/1  130/4/1 
f  132/1/1  134/2/1  135/3/1  133/4/1 
f  134/1/1  136/2/1  137/3/1  135/4/1 
f  146/1/1  147/2/1  148/3/1  149/4/1 
f  147/1/1  150/2/1  151/3/1  148/4/1 
f  150/1/1  152/2/1  153/3/1  151/4/1 
f  164/1/1  165/2/1  166/3/1  167/4/1 
f  165/1/1  168/2/1  169/3/1  166/4/1 
f  168/1/1  170/2/1  171/3/1  169/4/1 
f  170/1/1  172/2/1  173/3/1  171/4/1 
f  180/1/1  181/2/1  138/3/1  182/4/1 
f  198/1/1  199/2/1  200/3/1  201/4/1 
f  199/1/1  202/2/1  203/3/1  200/4/1 
f  202/1/1  204/2/1  205/3/1  203/4/1 
f  209/1/1  210/2/1  161/3/1  211/4/1 
f  219/1/1  220/2/1  221/3/1  222/4/1 
f  220/1/1  223/2/1  224/3/1  221/4/1 
f  231/1/1  232/2/1  233/3/1  234/4/1 
f  232/1/1  235/2/1  236/3/1  233/4/1 
f  245/1/1  246/2/1  247/3/1  189/4/1 
f  246/1/1  248/2/1  249/3/1  247/4/1 
f  248/1/1  250/2/1  251/3/1  249/4/1 
f  250/1/1  252/2/1  253/3/1  251/4/1 
f  252/1/1  254/2/1  255/3/1  253/4/1 
f  254/1/1  256/2/1  257/3/1  255/4/1 
f  256/1/1  258/2/1  259/3/1  257/4/1 
f  258/1/1  260/2/1  261/3/1  259/4/1 
f  260/1/1  262/2/1  263/3/1  261/4/1 
f  262/1/1  264/2/1  190/3/1  263/4/1 
f  267/1/1  268/2/1  269/3/1  193/4/1 
f  268/1/1  270/2/1  271/3/1  269/4/1 
f  270/1/1  272/2/1  194/3/1  271/4/1 
f  275/1/1  276/2/1  277/3/1  197/4/1 
f  276/1/1  278/2/1  279/3/1  277/4/1 
f  278/1/1  280/2/1  281/3/1  279/4/1 
f  280/1/1  282/2/1  283/3/1  281/4/1 
f  282/1/1  284/2/1  285/3/1  283/4/1 
f  284/1/1  286/2/1  287/3/1  285/4/1 
f  286/1/1  288/2/1  289/3/1  287/4/1 
f  288/1/1  290/2/1  291/3/1  289/4/1 
f  290/1/1  292/2/1  293/3/1  291/4/1 
f  292/1/1  294/2/1  295/3/1  293/4/1 
f  294/1/1  296/2/1  297/3/1  295/4/1 
f  296/1/1  298/2/1  299/3/1  297/4/1 
f  298/1/1  300/2/1  301/3/1  299/4/1 
f  300/1/1  302/2/1  303/3/1  301/4/1 
f  302/1/1  304/2/1  305/3/1  303/4/1 
f  304/1/1  306/2/1  307/3/1  305/4/1 
f  306/1/1  308/2/1  309/3/1  307/4/1 
f  308/1/1  310/2/1  311/3/1  309/4/1 
f  310/1/1  312/2/1  313/3/1  311/4/1 
f  312/1/1  314/2/1  315/3/1  313/4/1 
f  314/1/1  316/2/1  198/3/1  315/4/1 
f  319/1/1  320/2/1  321/3/1  204/4/1 
f  320/1/1  322/2/1  206/3/1  321/4/1 
f  322/1/1  323/2/1  207/3/1  206/4/1 
f  323/1/1  324/2/1  208/3/1  207/4/1 
f  324/1/1  325/2/1  326/3/1  208/4/1 
f  325/1/1  327/2/1  209/3/1  326/4/1 
f  327/1/1  328/2/1  210/3/1  209/4/1 
f  328/1/1  329/2/1  212/3/1  210/4/1 
f  329/1/1  330/2/1  213/3/1  212/4/1 
f  330/1/1  331/2/1  332/3/1  213/4/1 
f  331/1/1  333/2/1  334/3/1  332/4/1 
f  333/1/1  335/2/1  336/3/1  334/4/1 
f  335/1/1  337/2/1  338/3/1  336/4/1 
f  337/1/1  339/2/1  340/3/1  338/4/1 
f  339/1/1  341/2/1  342/3/1  340/4/1 
f  341/1/1  343/2/1  344/3/1  342/4/1 
f  343/1/1  345/2/1  346/3/1  344/4/1 
f  345/1/1  347/2/1  348/3/1  346/4/1 
f  347/1/1  349/2/1  214/3/1  348/4/1 
f  353/1/1  354/2/1  355/3/1  218/4/1 
f  354/1/1  356/2/1  357/3/1  355/4/1 
f  356/1/1  358/2/1  359/3/1  357/4/1 
f  358/1/1  360/2/1  361/3/1  359/4/1 
f  360/1/1  362/2/1  363/3/1  361/4/1 
f  362/1/1  364/2/1  365/3/1  363/4/1 
f  364/1/1  366/2/1  219/3/1  365/4/1 
f  368/1/1  369/2/1  370/3/1  223/4/1 
f  369/1/1  371/2/1  225/3/1  370/4/1 
f  376/1/1  377/2/1  378/3/1  230/4/1 
f  377/1/1  379/2/1  380/3/1  378/4/1 
f  379/1/1  381/2/1  382/3/1  380/4/1 
f  381/1/1  383/2/1  384/3/1  382/4/1 
f  383/1/1  385/2/1  386/3/1  384/4/1 
f  385/1/1  387/2/1  388/3/1  386/4/1 
f  387/1/1  389/2/1  390/3/1  388/4/1 
f  389/1/1  391/2/1  392/3/1  390/4/1 
f  391/1/1  393/2/1  394/3/1  392/4/1 
f  393/1/1  395/2/1  396/3/1  394/4/1 
f  395/1/1  397/2/1  398/3/1  396/4/1 
f  397/1/1  399/2/1  400/3/1  398/4/1 
f  399/1/1  401/2/1  402/3/1  400/4/1 
f  401/1/1  403/2/1  231/3/1  402/4/1 
f  403/1/1  404/2/1  232/3/1  231/4/1 
f  404/1/1  405/2/1  235/3/1  232/4/1 
f  405/1/1  406/2/1  407/3/1  235/4/1 
f  406/1/1  408/2/1  409/3/1  407/4/1 
f  408/1/1  410/2/1  411/3/1  409/4/1 
f  410/1/1  412/2/1  413/3/1  411/4/1 
f  412/1/1  414/2/1  415/3/1  413/4/1 
f  414/1/1  416/2/1  417/3/1  415/4/1 
f  416/1/1  418/2/1  419/3/1  417/4/1 
f  420/1/1  421/2/1  422/3/1  423/4/1 
f  421/1/1  424/2/1  425/3/1  422/4/1 
f  424/1/1  426/2/1  427/3/1  425/4/1 
f  426/1/1  428/2/1  429/3/1  427/4/1 
f  428/1/1  430/2/1  431/3/1  429/4/1 
f  430/1/1  432/2/1  433/3/1  431/4/1 
f  432/1/1  434/2/1  435/3/1  433/4/1 
f  434/1/1  436/2/1  437/3/1  435/4/1 
f  438/1/1  439/2/1  440/3/1  441/4/1 
f  439/1/1  442/2/1  443/3/1  440/4/1 
f  442/1/1  444/2/1  445/3/1  443/4/1 
f  444/1/1  446/2/1  447/3/1  445/4/1 
f  446/1/1  448/2/1  449/3/1  447/4/1 
f  448/1/1  450/2/1  451/3/1  449/4/1 
f  450/1/1  452/2/1  453/3/1  451/4/1 
f  454/1/1  455/2/1  456/3/1  457/4/1 
f  455/1/1  458/2/1  459/3/1  456/4/1 
f  458/1/1  460/2/1  461/3/1  459/4/1 
f  460/1/1  462/2/1  463/3/1  461/4/1 
f  462/1/1  464/2/1  237/3/1  463/4/1 
f  467/1/1  468/2/1  469/3/1  240/4/1 
f  468/1/1  470/2/1  471/3/1  469/4/1 
f  470/1/1  472/2/1  473/3/1  471/4/1 
f  472/1/1  474/2/1  475/3/1  473/4/1 
f  474/1/1  476/2/1  477/3/1  475/4/1 
f  476/1/1  478/2/1  479/3/1  477/4/1 
f  478/1/1  480/2/1  481/3/1  479/4/1 
f  480/1/1  482/2/1  483/3/1  481/4/1 
f  482/1/1  484/2/1  485/3/1  483/4/1 
f  484/1/1  486/2/1  487/3/1  485/4/1 
f  486/1/1  488/2/1  489/3/1  487/4/1 
f  488/1/1  490/2/1  491/3/1  489/4/1 
f  490/1/1  492/2/1  241/3/1  491/4/1 
g mesh_[01]_[02]
f  495/1/1  496/2/1  497/3/1  498/4/1 
f  499/1/1  500/2/1  501/3/1  502/4/1 
f  503/1/1  504/2/1  505/3/1  506/4/1 
f  507/1/1  508/2/1  509/3/1  510/4/1 
f  511/1/1  512/2/1  513/3/1  514/4/1 
f  515/1/1  516/2/1  517/3/1  518/4/1 
f  519/1/1  520/2/1  521/3/1  522/4/1 
f  523/1/1  524/2/1  525/3/1  526/4/1 
f  527/1/1  528/2/1  529/3/1  530/4/1 
f  531/1/1  532/2/1  533/3/1  534/4/1 
f  535/1/1  536/2/1  537/3/1  538/4/1 
f  338/1/1  539/2/1  540/3/1  541/4/1 
f  230/1/1  542/2/1  543/3/1  544/4/1 
f  398/1/1  545/2/1  546/3/1  547/4/1 
f  409/1/1  548/2/1  549/3/1  550/4/1 
f  437/1/1  551/2/1  552/3/1  553/4/1 
f  489/1/1  554/2/1  555/3/1  556/4/1 
f  373/1/1  557/2/1  558/3/1  559/4/1 
f  560/1/1  561/2/1  562/3/1  563/4/1 
f  564/1/1  565/2/1  566/3/1  567/4/1 
f  568/1/1  569/2/1  570/3/1  571/4/1 
f  572/1/1  573/2/1  574/3/1  575/4/1 
f  436/1/1  576/2/1  577/3/1  578/4/1 
